<?xml version="1.0" encoding="utf-8"?>
<!-- Generator: Adobe Illustrator 17.0.0, SVG Export Plug-In . SVG Version: 6.00 Build 0)  -->
<!DOCTYPE svg PUBLIC "-//W3C//DTD SVG 1.1//EN" "http://www.w3.org/Graphics/SVG/1.1/DTD/svg11.dtd">
<svg version="1.1" id="Layer_1" xmlns="http://www.w3.org/2000/svg" xmlns:xlink="http://www.w3.org/1999/xlink" x="0px" y="0px"
	 width="353.667px" height="357.667px" viewBox="0 0 353.667 357.667" enable-background="new 0 0 353.667 357.667"
	 xml:space="preserve">
<g>
	<path d="M172.99,260.423c-45.103,0-81.667-36.563-81.667-81.667s36.563-81.667,81.667-81.667"/>
	<path d="M168.14,178.756V11.289c0-3.24,2.171-5.866,4.85-5.866l0,0c2.679,0,4.85,2.626,4.85,5.866v167.467"/>
	<path d="M170.812,123.356l17.333-17.949c1.73-1.791,4.694-1.734,6.62,0.126l0,0c1.927,1.861,2.087,4.821,0.357,6.612
		l-17.333,17.949"/>
	<path d="M170.812,97.689l17.333-17.949c1.729-1.791,4.694-1.734,6.62,0.126l0,0c1.927,1.861,2.087,4.821,0.357,6.612
		l-17.333,17.949"/>
	<path d="M170.812,72.022l17.333-17.949c1.729-1.791,4.694-1.734,6.62,0.126l0,0c1.927,1.861,2.087,4.821,0.357,6.612L177.79,78.761
		"/>
	<path d="M170.812,46.355l17.333-17.949c1.729-1.791,4.694-1.734,6.62,0.126l0,0c1.927,1.861,2.087,4.821,0.357,6.612L177.79,53.094
		"/>
	<path d="M172.194,22.977l9.724-10.07c1.73-1.791,4.384-2.033,5.929-0.541l0,0c1.545,1.492,1.396,4.154-0.334,5.945l-9.744,10.085"
		/>
	<path d="M177.869,178.756v167.467c0,3.24-2.171,5.866-4.85,5.866l0,0c-2.679,0-4.85-2.626-4.85-5.866V178.756"/>
	<path d="M170.813,234.156l17.333,17.949c1.73,1.791,4.694,1.734,6.62-0.126l0,0c1.927-1.861,2.087-4.821,0.357-6.612
		l-17.333-17.949"/>
	<path d="M170.812,259.823l17.333,17.949c1.729,1.791,4.694,1.734,6.62-0.126l0,0c1.927-1.861,2.087-4.821,0.357-6.612
		l-17.333-17.949"/>
	<path d="M170.812,285.49l17.333,17.949c1.729,1.791,4.694,1.734,6.62-0.126l0,0c1.927-1.861,2.087-4.821,0.357-6.612
		l-17.333-17.949"/>
	<path d="M170.812,311.157l17.333,17.949c1.729,1.791,4.694,1.734,6.62-0.126l0,0c1.927-1.861,2.087-4.821,0.357-6.612
		l-17.333-17.949"/>
	<path d="M172.324,334.304l9.8,9.991c1.743,1.777,4.379,2.06,5.889,0.631l0,0c1.509-1.428,1.319-4.026-0.424-5.803l-9.821-10.006"/>
	<g>
		<path d="M173.325,172.209h167.467c3.24,0,5.866,2.171,5.866,4.85l0,0c0,2.679-2.626,4.85-5.866,4.85H173.325"/>
		<g>
			<path d="M228.726,174.88l17.949,17.333c1.791,1.729,1.734,4.694-0.126,6.62l0,0c-1.861,1.927-4.821,2.087-6.612,0.357
				l-17.949-17.333"/>
			<path d="M228.726,179.265l17.949-17.333c1.791-1.73,1.734-4.694-0.126-6.62l0,0c-1.861-1.927-4.821-2.087-6.612-0.357
				l-17.949,17.333"/>
		</g>
		<g>
			<path d="M254.392,174.881l17.949,17.333c1.791,1.73,1.734,4.694-0.126,6.62l0,0c-1.861,1.927-4.821,2.087-6.612,0.357
				l-17.949-17.333"/>
			<path d="M254.392,179.266l17.949-17.333c1.791-1.73,1.734-4.694-0.126-6.62l0,0c-1.861-1.927-4.821-2.087-6.612-0.357
				l-17.949,17.333"/>
		</g>
		<g>
			<path d="M280.059,174.881l17.949,17.333c1.791,1.73,1.734,4.694-0.126,6.62l0,0c-1.861,1.927-4.821,2.087-6.612,0.357
				l-17.949-17.333"/>
			<path d="M280.059,179.266l17.949-17.333c1.791-1.73,1.734-4.694-0.126-6.62l0,0c-1.861-1.927-4.821-2.087-6.612-0.357
				l-17.949,17.333"/>
		</g>
		<g>
			<path d="M305.726,174.881l17.949,17.333c1.791,1.73,1.734,4.694-0.126,6.62l0,0c-1.861,1.927-4.821,2.087-6.612,0.357
				l-17.949-17.333"/>
			<path d="M305.726,179.266l17.949-17.333c1.791-1.73,1.734-4.694-0.126-6.62l0,0c-1.861-1.927-4.821-2.087-6.612-0.357
				l-17.949,17.333"/>
		</g>
		<path d="M329.105,176.263l10.07,9.724c1.791,1.73,2.033,4.384,0.541,5.929l0,0c-1.492,1.545-4.154,1.396-5.945-0.334
			l-10.085-9.744"/>
		<path d="M328.874,177.754l9.991-9.8c1.777-1.743,2.06-4.379,0.631-5.889l0,0c-1.428-1.509-4.026-1.319-5.803,0.424l-10.006,9.821"
			/>
	</g>
	<g>
		<path d="M169.964,173.185L288.382,54.768c2.291-2.291,5.683-2.613,7.577-0.718l0,0c1.894,1.894,1.572,5.287-0.718,7.577
			L176.823,180.044"/>
		<g>
			<path d="M211.027,135.9l24.948-0.435c2.489-0.043,4.545,2.092,4.592,4.771l0,0c0.047,2.678-1.933,4.884-4.423,4.928
				l-24.949,0.435"/>
			<path d="M214.128,139.001l0.435-24.948c0.043-2.489-2.092-4.545-4.771-4.592l0,0c-2.678-0.047-4.884,1.933-4.928,4.423
				l-0.435,24.949"/>
		</g>
		<g>
			<path d="M229.177,117.752l24.948-0.435c2.489-0.043,4.545,2.092,4.592,4.771l0,0c0.047,2.678-1.933,4.884-4.423,4.928
				l-24.949,0.435"/>
			<path d="M232.277,120.852l0.435-24.948c0.043-2.489-2.092-4.545-4.771-4.592l0,0c-2.678-0.047-4.884,1.933-4.928,4.423
				l-0.435,24.949"/>
		</g>
		<g>
			<path d="M247.326,99.602l24.948-0.435c2.489-0.043,4.545,2.092,4.592,4.771l0,0c0.047,2.678-1.933,4.884-4.423,4.928
				l-24.949,0.435"/>
			<path d="M250.427,102.703l0.435-24.948c0.043-2.489-2.092-4.545-4.771-4.592l0,0c-2.678-0.047-4.884,1.933-4.928,4.423
				l-0.435,24.949"/>
		</g>
		<g>
			<path d="M265.475,81.453l24.948-0.435c2.489-0.043,4.545,2.092,4.592,4.771l0,0c0.047,2.678-1.933,4.884-4.423,4.928
				l-24.949,0.435"/>
			<path d="M268.576,84.554l0.435-24.948c0.043-2.489-2.092-4.545-4.771-4.592l0,0c-2.678-0.047-4.884,1.933-4.928,4.423
				l-0.435,24.949"/>
		</g>
		<path d="M282.984,65.899l13.996-0.244c2.489-0.043,4.538,1.662,4.575,3.81l0,0c0.037,2.148-1.95,3.924-4.439,3.967l-14.021,0.241"
			/>
		<path d="M283.875,67.117l0.135-13.994c0.024-2.489-1.64-4.553-3.717-4.61l0,0c-2.077-0.057-3.78,1.914-3.804,4.403l-0.131,14.02"
			/>
	</g>
	<g>
		<path d="M176.289,173.645l118.417,118.417c2.291,2.291,2.613,5.683,0.718,7.577l0,0c-1.894,1.894-5.287,1.572-7.577-0.719
			L169.43,180.504"/>
		<g>
			<path d="M213.574,214.708l0.435,24.948c0.043,2.489-2.092,4.545-4.771,4.592l0,0c-2.678,0.047-4.884-1.933-4.928-4.423
				l-0.435-24.949"/>
			<path d="M210.473,217.809l24.948,0.435c2.489,0.043,4.545-2.092,4.592-4.771l0,0c0.047-2.678-1.933-4.884-4.423-4.928
				l-24.949-0.435"/>
		</g>
		<g>
			<path d="M231.723,232.857l0.435,24.948c0.043,2.489-2.092,4.545-4.771,4.592l0,0c-2.678,0.047-4.884-1.933-4.928-4.423
				l-0.435-24.949"/>
			<path d="M228.622,235.958l24.948,0.435c2.489,0.043,4.545-2.092,4.592-4.771l0,0c0.047-2.678-1.933-4.884-4.423-4.928
				l-24.949-0.435"/>
		</g>
		<g>
			<path d="M249.872,251.007l0.435,24.948c0.043,2.489-2.092,4.545-4.771,4.592l0,0c-2.678,0.047-4.884-1.933-4.928-4.423
				l-0.435-24.949"/>
			<path d="M246.771,254.107l24.948,0.435c2.489,0.043,4.545-2.092,4.592-4.771l0,0c0.047-2.678-1.933-4.884-4.423-4.928
				l-24.949-0.435"/>
		</g>
		<g>
			<path d="M268.021,269.156l0.435,24.948c0.043,2.489-2.092,4.545-4.771,4.592l0,0c-2.678,0.047-4.884-1.933-4.928-4.423
				l-0.435-24.949"/>
			<path d="M264.921,272.257l24.948,0.435c2.489,0.043,4.545-2.092,4.592-4.771l0,0c0.047-2.678-1.933-4.884-4.423-4.928
				l-24.949-0.435"/>
		</g>
		<path d="M283.575,286.664l0.244,13.996c0.043,2.489-1.662,4.538-3.81,4.575l0,0c-2.148,0.037-3.924-1.95-3.967-4.439
			l-0.241-14.021"/>
		<path d="M282.357,287.555l13.994,0.135c2.489,0.024,4.553-1.64,4.61-3.717l0,0c0.057-2.077-1.914-3.78-4.403-3.804l-14.02-0.131"
			/>
	</g>
	<path d="M172.99,81.017L172.99,81.017c-8.1,0-14.667-5.926-14.667-13.236V18.659c0-7.31,6.566-13.236,14.667-13.236l0,0"/>
	<path d="M68.266,166.946c7.31,0,13.236,6.566,13.236,14.667l0,0c0,8.1-5.926,14.667-13.236,14.667H19.144
		c-7.31,0-13.236-6.566-13.236-14.667l0,0c0-8.1,5.926-14.667,13.236-14.667H68.266z"/>
	<path d="M172.99,352.089L172.99,352.089c-8.1,0-14.667-5.926-14.667-13.236v-49.122c0-7.31,6.566-13.236,14.667-13.236l0,0"/>
	<path d="M87.963,113.662c6.331,3.655,8.18,12.305,4.129,19.32l0,0c-4.05,7.015-12.465,9.739-18.796,6.084l-42.541-24.561
		c-6.331-3.655-8.18-12.305-4.129-19.32l0,0c4.05-7.015,12.465-9.739,18.796-6.084L87.963,113.662z"/>
	<path d="M131.663,77.365c3.655,6.331,0.931,14.746-6.084,18.796l0,0c-7.015,4.05-15.665,2.201-19.32-4.129L81.699,49.491
		c-3.655-6.331-0.931-14.746,6.084-18.796l0,0c7.015-4.05,15.665-2.201,19.32,4.129L131.663,77.365z"/>
	<path d="M104.563,265.026c3.655-6.331,12.305-8.18,19.32-4.129l0,0c7.015,4.05,9.739,12.465,6.084,18.796l-24.561,42.541
		c-3.655,6.331-12.305,8.18-19.32,4.129l0,0c-7.015-4.05-9.739-12.465-6.084-18.796L104.563,265.026z"/>
	<path d="M70.357,216.75c6.331-3.655,14.746-0.931,18.796,6.084l0,0c4.05,7.015,2.201,15.665-4.129,19.32l-42.541,24.561
		c-6.331,3.655-14.746,0.931-18.796-6.084l0,0c-4.05-7.015-2.201-15.665,4.129-19.32L70.357,216.75z"/>
</g>
</svg>
