<?xml version="1.0" encoding="utf-8"?>
<!-- Generator: Adobe Illustrator 17.0.0, SVG Export Plug-In . SVG Version: 6.00 Build 0)  -->
<!DOCTYPE svg PUBLIC "-//W3C//DTD SVG 1.1//EN" "http://www.w3.org/Graphics/SVG/1.1/DTD/svg11.dtd">
<svg version="1.1" id="Layer_1" xmlns="http://www.w3.org/2000/svg" xmlns:xlink="http://www.w3.org/1999/xlink" x="0px" y="0px"
	 width="367px" height="400px" viewBox="0 0 367 400" enable-background="new 0 0 367 400" xml:space="preserve">
<g>
	<g>
		<path fill="#FFFFFF" d="M83.143,268.597l10.855,31.395h0.176l10.942-31.395h11.177v42.601h-8.544v-12.698l0.819-18.813
			l-0.175-0.029l-11.411,31.541h-5.734l-11.353-31.424l-0.175,0.029l0.819,18.696v12.698h-8.543v-42.601H83.143z"/>
		<path fill="#FFFFFF" d="M139.115,288.229h0.175l9.304-19.633h9.363l-14.629,27.62v14.98h-8.514v-15.419l-14.366-27.182h9.362
			L139.115,288.229z"/>
		<path fill="#FFFFFF" d="M210.709,297.797h0.176l6.086-29.2h8.34l-9.949,42.601h-7.928l-7.813-28.117h-0.176l-7.812,28.117h-7.929
			l-9.977-42.601h8.368l6.115,29.171l0.176,0.029l7.987-29.2h6.291L210.709,297.797z"/>
		<path fill="#FFFFFF" d="M256.295,292.472h-17.644v12.143h20.628v6.583h-29.171v-42.601h29.112v6.583h-20.569v10.709h17.644
			V292.472z"/>
		<path fill="#FFFFFF" d="M264.517,311.197v-42.601h14.395c5.013,0,8.924,0.976,11.733,2.926c2.809,1.951,4.213,4.867,4.213,8.748
			c0,1.971-0.522,3.73-1.565,5.281c-1.044,1.551-2.56,2.717-4.55,3.497c2.556,0.546,4.472,1.717,5.749,3.511
			c1.277,1.795,1.917,3.872,1.917,6.232c0,4.076-1.346,7.163-4.038,9.26c-2.691,2.098-6.505,3.146-11.439,3.146H264.517z
			 M273.06,286.444h6.145c2.282,0,4.038-0.468,5.267-1.404s1.843-2.302,1.843-4.096c0-1.971-0.619-3.424-1.857-4.36
			c-1.239-0.936-3.087-1.404-5.545-1.404h-5.852V286.444z M273.06,292.354v12.26h7.871c2.262,0,3.988-0.491,5.179-1.474
			c1.189-0.983,1.784-2.438,1.784-4.364c0-2.082-0.507-3.673-1.521-4.772c-1.014-1.1-2.613-1.649-4.798-1.649H273.06z"/>
		<path fill="#FFFFFF" d="M39.616,354.784H22.182v14.996h19.971v2.537h-22.93v-36.21h22.806v2.536H22.182v13.604h17.434V354.784z"/>
		<path fill="#FFFFFF" d="M59.437,351.576l10.222-15.469h3.606l-12.037,17.856l12.435,18.354h-3.557l-10.619-15.967l-10.595,15.967
			h-3.606l12.435-18.354l-12.062-17.856h3.606L59.437,351.576z"/>
		<path fill="#FFFFFF" d="M82.764,357.271v15.046h-2.959v-36.21h12.46c3.796,0,6.735,0.966,8.816,2.896
			c2.081,1.932,3.121,4.489,3.121,7.673c0,3.217-1.041,5.786-3.121,7.71c-2.081,1.923-5.02,2.885-8.816,2.885H82.764z
			 M82.764,354.734h9.5c2.984,0,5.227-0.759,6.727-2.275c1.5-1.518,2.251-3.428,2.251-5.732c0-2.321-0.746-4.249-2.238-5.782
			s-3.739-2.301-6.74-2.301h-9.5V354.734z"/>
		<path fill="#FFFFFF" d="M131.708,354.784h-17.434v14.996h19.971v2.537h-22.93v-36.21h22.806v2.536h-19.846v13.604h17.434V354.784z
			"/>
		<path fill="#FFFFFF" d="M143.546,355.953v16.364h-2.96v-36.186h12.261c3.879,0,6.855,0.85,8.928,2.549
			c2.072,1.7,3.108,4.183,3.108,7.449c0,1.923-0.556,3.643-1.666,5.16c-1.111,1.517-2.678,2.624-4.701,3.32
			c2.238,0.563,3.851,1.571,4.837,3.021c0.986,1.451,1.479,3.271,1.479,5.459v3.407c0,1.128,0.133,2.139,0.398,3.034
			s0.705,1.625,1.318,2.188v0.597h-3.034c-0.614-0.597-1.044-1.434-1.293-2.512c-0.249-1.078-0.373-2.197-0.373-3.357v-3.308
			c0-2.222-0.717-3.975-2.151-5.26c-1.435-1.285-3.437-1.928-6.006-1.928H143.546z M143.546,353.416h8.928
			c3.266,0,5.653-0.659,7.162-1.977c1.509-1.318,2.263-3.097,2.263-5.335c0-2.388-0.75-4.224-2.25-5.509
			c-1.501-1.284-3.768-1.927-6.802-1.927h-9.301V353.416z"/>
		<path fill="#FFFFFF" d="M177.817,372.317h-2.984v-36.21h2.984V372.317z"/>
		<path fill="#FFFFFF" d="M191.868,336.107l13.306,31.883h0.148l13.355-31.883h3.93v36.21h-2.959v-15.991l0.248-15.842l-0.148-0.05
			l-13.455,31.883h-2.064l-13.43-31.733l-0.149,0.024l0.273,15.718v15.991h-2.959v-36.21H191.868z"/>
		<path fill="#FFFFFF" d="M252.501,354.784h-17.434v14.996h19.97v2.537h-22.93v-36.21h22.806v2.536h-19.846v13.604h17.434V354.784z"
			/>
		<path fill="#FFFFFF" d="M288.114,372.317h-2.959l-20.567-31.137l-0.149,0.024v31.112h-2.984v-36.21h2.984l20.567,31.087
			l0.149-0.025v-31.062h2.959V372.317z"/>
		<path fill="#FFFFFF" d="M321.167,338.644h-12.46v33.674h-2.984v-33.674h-12.46v-2.536h27.904V338.644z"/>
		<path fill="#FFFFFF" d="M347.379,363.425c0-1.969-0.738-3.579-2.214-4.828c-1.476-1.25-4.045-2.354-7.709-3.315
			c-3.963-0.994-6.964-2.288-9.003-3.879c-2.04-1.592-3.06-3.739-3.06-6.441c0-2.769,1.14-5.024,3.42-6.765
			c2.279-1.741,5.21-2.611,8.791-2.611c3.73,0,6.74,1.036,9.028,3.108c2.288,2.073,3.398,4.601,3.332,7.585l-0.074,0.149h-2.735
			c0-2.42-0.858-4.41-2.574-5.969c-1.716-1.558-4.041-2.338-6.977-2.338c-2.901,0-5.169,0.646-6.802,1.94
			c-1.633,1.293-2.449,2.901-2.449,4.824c0,1.824,0.754,3.346,2.263,4.563c1.509,1.219,4.112,2.293,7.81,3.221
			c3.896,0.995,6.859,2.338,8.891,4.029s3.047,3.921,3.047,6.689c0,2.886-1.182,5.182-3.544,6.89s-5.376,2.562-9.04,2.562
			c-3.615,0-6.77-0.908-9.463-2.724c-2.694-1.815-4-4.464-3.917-7.945l0.05-0.149h2.735c0,2.811,1.053,4.893,3.158,6.248
			s4.584,2.033,7.437,2.033c2.868,0,5.186-0.629,6.951-1.887S347.379,365.494,347.379,363.425z"/>
	</g>
	<g>
		<g>
			<g enable-background="new    ">
				<defs>
					<rect id="SVGID_1_" x="90.783" y="172.51" enable-background="new    " width="170.775" height="71.761"/>
				</defs>
				<clipPath id="SVGID_2_">
					<use xlink:href="#SVGID_1_"  overflow="visible"/>
				</clipPath>
				<g clip-path="url(#SVGID_2_)">
					<g>
						<g>
							<g>
								<path fill="#FFFFFF" d="M180.108,194.108h-7.866c-0.738,0-1.314,0.499-1.314,1.13v6.812c0,0.639,0.576,1.138,1.314,1.138
									h7.866c0.738,0,1.314-0.499,1.314-1.138v-6.812C181.422,194.606,180.846,194.108,180.108,194.108"/>
								<path fill="#FFFFFF" d="M159.138,194.108h-7.866c-0.738,0-1.314,0.499-1.314,1.13v6.812c0,0.639,0.576,1.138,1.314,1.138
									h7.866c0.738,0,1.305-0.499,1.305-1.138v-6.812C160.443,194.606,159.876,194.108,159.138,194.108"/>
								<path fill="#FFFFFF" d="M233.847,188.332c-3.438,0.787-6.93,1.496-10.485,2.104v3.671h-9.171
									c-0.738,0-1.314,0.499-1.314,1.13v6.812c0,0.639,0.576,1.138,1.314,1.138h18.351c0.738,0,1.305-0.499,1.305-1.138V188.332"
									/>
								<path fill="#FFFFFF" d="M232.542,212.268h-7.866c-0.738,0-1.314,0.499-1.314,1.138v6.812c0,0.639,0.576,1.13,1.314,1.13
									h7.866c0.738,0,1.305-0.491,1.305-1.13v-6.812C233.847,212.767,233.28,212.268,232.542,212.268"/>
								<path fill="#FFFFFF" d="M118.503,182.377v1.512c0,0.639,0.576,1.138,1.305,1.138h6.219
									c-0.279-0.101-0.567-0.171-0.846-0.265C122.976,183.975,120.735,183.188,118.503,182.377"/>
								<path fill="#FFFFFF" d="M127.674,212.268h-7.866c-0.729,0-1.305,0.499-1.305,1.138v6.812c0,0.639,0.576,1.13,1.305,1.13
									h7.866c0.738,0,1.314-0.491,1.314-1.13v-6.812C128.988,212.767,128.412,212.268,127.674,212.268"/>
								<path fill="#FFFFFF" d="M201.078,194.108h-7.866c-0.738,0-1.305,0.499-1.305,1.13v6.812c0,0.639,0.567,1.138,1.305,1.138
									h7.866c0.738,0,1.314-0.499,1.314-1.138v-6.812C202.392,194.606,201.816,194.108,201.078,194.108"/>
								<path fill="#FFFFFF" d="M138.159,194.108h-18.351c-0.729,0-1.305,0.499-1.305,1.13v6.812c0,0.639,0.576,1.138,1.305,1.138
									h18.351c0.738,0,1.314-0.499,1.314-1.138v-6.812C139.473,194.606,138.897,194.108,138.159,194.108"/>
								<path fill="#FFFFFF" d="M96.966,172.51l-6.183,62.245c0,5.043,3.177,9.517,8.991,9.517h152.802
									c5.814,0,8.982-5.776,8.982-10.811l-5.247-51.878c-3.555,1.333-7.2,2.572-10.935,3.702l2.7,47.74l-145.305-0.32
									l4.365-54.809c-2.835-1.255-5.571-2.595-8.1-4.084C98.334,173.391,97.659,172.938,96.966,172.51"/>
								<path fill="#FFFFFF" d="M211.572,212.268h-70.785c-0.738,0-1.314,0.499-1.314,1.138v6.812c0,0.639,0.576,1.13,1.314,1.13
									h70.785c0.729,0,1.305-0.491,1.305-1.13v-6.812C212.877,212.767,212.301,212.268,211.572,212.268"/>
							</g>
						</g>
					</g>
				</g>
			</g>
		</g>
	</g>
	<polyline fill="none" stroke="#FFFFFF" stroke-width="11.9843" stroke-miterlimit="10" points="90.786,122.448 90.786,57.533 
		261.563,57.533 261.563,151.909 	"/>
	<g>
		<path fill="#FFFFFF" d="M195.426,130.719h-38.514c-4.714,0-6.486-3.243-3.979-7.221l16.816-26.512V83.647h-2.14
			c-1.17,0-2.14-0.97-2.14-2.14s0.97-2.14,2.14-2.14h17.117c1.17,0,2.14,0.97,2.14,2.14s-0.97,2.14-2.14,2.14h-2.14v13.339
			l16.816,26.512C201.911,127.477,200.14,130.719,195.426,130.719z M164.267,113.602h23.804l-9.094-14.342l-0.668-1.037v-1.237
			V83.647h-4.279v13.339v1.237l-0.668,1.037L164.267,113.602z"/>
	</g>
	<path fill="#FFFFFF" d="M171.696,157.679C100.053,139.897,50.34,91.776,60.66,50.198c3.83-15.43,15.401-27.782,32.087-36.318
		c-26.92,7.787-46.163,23.017-51.331,43.838c-10.32,41.578,39.393,89.699,111.036,107.481c45.055,11.183,88.042,7.694,116.318-6.77
		C241.932,166.191,207.463,166.556,171.696,157.679z"/>
	<path fill="#FFFFFF" d="M186.877,185.795c71.003-5.455,127.661-41.052,124.495-82.26c-1.175-15.293-0.659-22.167-15.168-32.957
		c24.365,11.715,29.023,20.325,30.609,40.96c3.166,41.207-51.828,79.034-122.831,84.489c-44.653,3.43-84.991-6.766-109.578-25.051
		C118.695,182.656,151.43,188.518,186.877,185.795z"/>
</g>
</svg>
