<?xml version="1.0" encoding="utf-8"?>
<!-- Generator: Adobe Illustrator 17.0.0, SVG Export Plug-In . SVG Version: 6.00 Build 0)  -->
<!DOCTYPE svg PUBLIC "-//W3C//DTD SVG 1.1//EN" "http://www.w3.org/Graphics/SVG/1.1/DTD/svg11.dtd">
<svg version="1.1" id="Layer_1" xmlns="http://www.w3.org/2000/svg" xmlns:xlink="http://www.w3.org/1999/xlink" x="0px" y="0px"
	 width="141.125px" height="38.25px" viewBox="-29.875 0 141.125 38.25" enable-background="new -29.875 0 141.125 38.25"
	 xml:space="preserve">
<g>
	<path fill="#FFFFFF" d="M-26.312,11.407l4.004,10.207h0.052l4.004-10.207h2.175v12.562h-1.701v-4.97l0.172-5.108l-0.043-0.009
		l-4.073,10.086h-1.129l-4.055-10.06l-0.043,0.009l0.163,5.081v4.97h-1.699V11.407C-28.485,11.407-26.312,11.407-26.312,11.407z"/>
	<path fill="#FFFFFF" d="M-10.428,20.51l0.302,1.174h0.052l2.296-7.049h1.889l-3.926,10.768c-0.236,0.627-0.574,1.174-1.013,1.639
		c-0.439,0.465-1.034,0.699-1.782,0.699c-0.138,0-0.314-0.016-0.526-0.047s-0.377-0.062-0.492-0.091l0.172-1.337
		c-0.034-0.006,0.068,0,0.306,0.018c0.239,0.018,0.39,0.027,0.454,0.027c0.362,0,0.658-0.16,0.889-0.483s0.423-0.679,0.579-1.07
		l0.405-0.975l-3.468-9.145h1.898L-10.428,20.51z"/>
	<path fill="#FFFFFF" d="M9.363,23.792c-2.627,0.236-4.806,0.353-6.538,0.353c-1.154,0-2.003-0.271-2.544-0.813
		s-0.813-1.39-0.813-2.544v-5.654c0-1.237,0.28-2.135,0.839-2.695c0.56-0.56,1.458-0.839,2.695-0.839h6.361v2.474H3.709
		c-0.707,0-1.06,0.353-1.06,1.06v5.654c0,0.271,0.08,0.486,0.239,0.645c0.159,0.159,0.362,0.239,0.61,0.239s0.518-0.003,0.813-0.009
		c0.294-0.006,0.601-0.015,0.919-0.027c0.318-0.012,0.639-0.024,0.963-0.035c0.324-0.012,0.742-0.035,1.255-0.071
		s1.151-0.077,1.917-0.124C9.363,21.407,9.363,23.792,9.363,23.792z"/>
	<path fill="#FFFFFF" d="M16.687,23.969c-0.057-0.281-0.102-0.53-0.134-0.747c-0.032-0.216-0.05-0.433-0.056-0.651
		c-0.317,0.449-0.729,0.825-1.238,1.126c-0.509,0.302-1.057,0.454-1.643,0.454c-0.972,0-1.712-0.249-2.222-0.747
		c-0.509-0.498-0.764-1.184-0.764-2.057c0-0.891,0.361-1.589,1.082-2.092c0.722-0.504,1.701-0.755,2.938-0.755h1.846v-0.923
		c0-0.546-0.166-0.979-0.501-1.299c-0.334-0.32-0.805-0.479-1.415-0.479c-0.546,0-0.991,0.14-1.333,0.418s-0.514,0.614-0.514,1.006
		h-1.623l-0.018-0.052c-0.034-0.679,0.286-1.3,0.962-1.864s1.549-0.845,2.618-0.845c1.059,0,1.91,0.269,2.553,0.807
		s0.966,1.313,0.966,2.325v4.495c0,0.334,0.018,0.655,0.052,0.966s0.097,0.615,0.19,0.914h-1.746V23.969z M13.866,22.719
		c0.615,0,1.171-0.158,1.665-0.473s0.817-0.676,0.966-1.084v-1.514H14.59c-0.685,0-1.232,0.172-1.643,0.517
		c-0.411,0.345-0.617,0.748-0.617,1.213c0,0.414,0.13,0.739,0.389,0.982C12.976,22.598,13.359,22.719,13.866,22.719z"/>
	<path fill="#FFFFFF" d="M22.502,23.969h-1.699v-13.46h1.699V23.969z"/>
	<path fill="#FFFFFF" d="M28.989,24.151c-1.3,0-2.334-0.433-3.101-1.299c-0.767-0.866-1.151-1.989-1.151-3.369v-0.38
		c0-1.328,0.396-2.434,1.187-3.317c0.791-0.883,1.727-1.324,2.808-1.324c1.259,0,2.212,0.38,2.855,1.138
		c0.643,0.758,0.966,1.771,0.966,3.038V19.7h-6.056l-0.027,0.043c0.018,0.894,0.244,1.63,0.682,2.207
		c0.437,0.577,1.05,0.864,1.838,0.864c0.576,0,1.079-0.082,1.514-0.246c0.434-0.163,0.81-0.39,1.126-0.677l0.664,1.106
		c-0.334,0.33-0.773,0.605-1.319,0.825C30.428,24.041,29.767,24.151,28.989,24.151z M28.732,15.799c-0.57,0-1.056,0.24-1.458,0.719
		c-0.402,0.479-0.649,1.079-0.742,1.801l0.018,0.043h4.305v-0.224c0-0.666-0.178-1.221-0.534-1.668S29.433,15.799,28.732,15.799z"/>
	<path fill="#FFFFFF" d="M35.979,14.635l0.121,1.389c0.311-0.495,0.701-0.879,1.169-1.151c0.468-0.272,1.003-0.409,1.601-0.409
		c1.007,0,1.786,0.294,2.338,0.885c0.552,0.59,0.829,1.5,0.829,2.73v5.893h-1.699v-5.859c0-0.823-0.162-1.406-0.487-1.751
		c-0.325-0.345-0.822-0.518-1.489-0.518c-0.489,0-0.922,0.118-1.299,0.353c-0.377,0.236-0.677,0.558-0.901,0.966v6.807h-1.699
		v-9.335h1.517V14.635z"/>
	<path fill="#FFFFFF" d="M44.114,19.475c0-1.502,0.321-2.712,0.962-3.633c0.641-0.92,1.54-1.381,2.696-1.381
		c0.546,0,1.031,0.1,1.453,0.302s0.783,0.495,1.082,0.881V10.51h1.699v13.46h-1.389l-0.199-1.147
		c-0.305,0.437-0.679,0.767-1.122,0.992c-0.443,0.225-0.957,0.337-1.545,0.337c-1.138,0-2.031-0.412-2.674-1.238
		c-0.643-0.826-0.966-1.911-0.966-3.257v-0.183H44.114z M45.814,19.656c0,0.944,0.193,1.698,0.579,2.265s0.984,0.85,1.795,0.85
		c0.507,0,0.932-0.115,1.277-0.345c0.345-0.23,0.627-0.552,0.845-0.966v-4.357c-0.218-0.386-0.502-0.692-0.85-0.919
		c-0.347-0.227-0.767-0.34-1.256-0.34c-0.817,0-1.419,0.337-1.808,1.01s-0.583,1.548-0.583,2.622v0.18H45.814z"/>
	<path fill="#FFFFFF" d="M60.282,23.969c-0.057-0.281-0.102-0.53-0.134-0.747s-0.05-0.433-0.056-0.651
		c-0.317,0.449-0.729,0.825-1.238,1.126c-0.509,0.302-1.057,0.454-1.643,0.454c-0.972,0-1.712-0.249-2.222-0.747
		c-0.509-0.498-0.764-1.184-0.764-2.057c0-0.891,0.361-1.589,1.082-2.092c0.722-0.504,1.701-0.755,2.938-0.755h1.846v-0.923
		c0-0.546-0.166-0.979-0.501-1.299c-0.334-0.32-0.805-0.479-1.415-0.479c-0.546,0-0.991,0.14-1.333,0.418s-0.514,0.614-0.514,1.006
		h-1.623l-0.018-0.052c-0.034-0.679,0.286-1.3,0.962-1.864c0.676-0.564,1.549-0.845,2.618-0.845c1.059,0,1.91,0.269,2.553,0.807
		s0.966,1.313,0.966,2.325v4.495c0,0.334,0.018,0.655,0.052,0.966c0.034,0.311,0.097,0.615,0.19,0.914h-1.746V23.969z
		 M57.461,22.719c0.615,0,1.171-0.158,1.665-0.473c0.495-0.315,0.817-0.676,0.966-1.084v-1.514h-1.907
		c-0.685,0-1.232,0.172-1.643,0.517c-0.411,0.345-0.617,0.748-0.617,1.213c0,0.414,0.13,0.739,0.389,0.982
		C56.573,22.598,56.956,22.719,57.461,22.719z"/>
	<path fill="#FFFFFF" d="M68.678,16.135l-0.872-0.052c-0.449,0-0.828,0.106-1.135,0.32c-0.308,0.214-0.545,0.512-0.711,0.897v6.669
		H64.26v-9.335h1.518l0.163,1.363c0.265-0.483,0.59-0.86,0.979-1.131c0.389-0.271,0.835-0.405,1.341-0.405
		c0.127,0,0.247,0.01,0.362,0.031c0.115,0.021,0.211,0.041,0.284,0.065L68.678,16.135z"/>
</g>
<path fill="#FFFFFF" d="M87.558,21.469l-7.882,1.37l-2.956,0.514l0.464,2.668l0.03,0.012c0.007,0.092,0.003,0.183,0.02,0.276
	l1.199,6.897l0.171,0.985l0.514,2.956l2.956-0.514l7.882-1.37l2.956-0.514l-0.514-2.956l-1.37-7.882
	C90.745,22.286,89.184,21.187,87.558,21.469z"/>
<path fill="#F3F4F4" d="M93.983,23.398l1.37,7.882l0.514,2.956l2.668-0.464l0.012-0.03c0.092-0.007,0.183-0.003,0.276-0.02
	l6.897-1.199l0.985-0.171l2.956-0.514l-0.514-2.956L107.776,21l-0.514-2.956l-2.956,0.514l-7.882,1.37
	C94.799,20.211,93.701,21.772,93.983,23.398z"/>
<path fill="#E0E1E2" d="M95.911,16.973l7.882-1.37l2.956-0.514l-0.464-2.668l-0.03-0.012c-0.007-0.092-0.003-0.183-0.02-0.276
	l-1.199-6.897l-0.171-0.985l-0.514-2.956l-2.956,0.514l-7.882,1.37l-2.956,0.514l0.514,2.956l1.37,7.882
	C92.725,16.156,94.286,17.255,95.911,16.973z"/>
<path fill="#BFBFBF" d="M84.647,4.72l0.287-0.05L84.922,4.7C84.831,4.708,84.74,4.704,84.647,4.72l1.884,10.838l-10.838,1.884
	l-2.442,3.469l2.956-0.514l2.956-0.514l7.882-1.37c1.626-0.283,2.725-1.844,2.442-3.469l-1.37-7.882l-0.514-2.956L87.089,1.25
	L84.647,4.72z"/>
<g>
	<path fill="#013E7B" d="M-81.19-58.106l4.004,10.207h0.052l4.004-10.207h2.175v12.562h-1.701v-4.97l0.172-5.108l-0.043-0.009
		l-4.073,10.086h-1.129l-4.055-10.06l-0.043,0.009l0.163,5.081v4.97h-1.699v-12.562C-83.364-58.106-81.19-58.106-81.19-58.106z"/>
	<path fill="#013E7B" d="M-65.307-49.003l0.302,1.174h0.052l2.296-7.049h1.889l-3.926,10.768c-0.236,0.627-0.574,1.174-1.013,1.639
		c-0.439,0.465-1.034,0.699-1.782,0.699c-0.138,0-0.314-0.016-0.526-0.047c-0.212-0.031-0.377-0.062-0.492-0.091l0.172-1.337
		c-0.034-0.006,0.068,0,0.306,0.018c0.239,0.018,0.39,0.027,0.454,0.027c0.362,0,0.658-0.16,0.889-0.483
		c0.231-0.322,0.423-0.679,0.579-1.07l0.405-0.975l-3.468-9.145h1.898L-65.307-49.003z"/>
	<path fill="#013E7B" d="M-45.516-45.721c-2.627,0.236-4.806,0.353-6.538,0.353c-1.154,0-2.003-0.271-2.544-0.813
		c-0.542-0.542-0.813-1.39-0.813-2.544v-5.654c0-1.237,0.28-2.135,0.839-2.695c0.56-0.56,1.458-0.839,2.695-0.839h6.361v2.474
		h-5.654c-0.707,0-1.06,0.353-1.06,1.06v5.654c0,0.271,0.08,0.486,0.239,0.645c0.159,0.159,0.362,0.239,0.61,0.239
		s0.518-0.003,0.813-0.009c0.294-0.006,0.601-0.015,0.919-0.027c0.318-0.012,0.639-0.024,0.963-0.035
		c0.324-0.012,0.742-0.035,1.255-0.071s1.151-0.077,1.917-0.124C-45.516-48.106-45.516-45.721-45.516-45.721z"/>
	<path fill="#013E7B" d="M-38.192-45.544c-0.057-0.281-0.102-0.53-0.134-0.747c-0.032-0.216-0.05-0.433-0.056-0.651
		c-0.317,0.449-0.729,0.825-1.238,1.126s-1.057,0.454-1.643,0.454c-0.972,0-1.712-0.249-2.222-0.747s-0.764-1.184-0.764-2.057
		c0-0.891,0.361-1.589,1.082-2.092c0.722-0.504,1.701-0.755,2.938-0.755h1.846v-0.923c0-0.546-0.166-0.979-0.501-1.299
		c-0.334-0.32-0.805-0.479-1.415-0.479c-0.546,0-0.991,0.14-1.333,0.418c-0.342,0.278-0.514,0.614-0.514,1.006h-1.623l-0.018-0.052
		c-0.034-0.679,0.286-1.3,0.962-1.864c0.676-0.564,1.549-0.845,2.618-0.845c1.059,0,1.91,0.269,2.553,0.807s0.966,1.313,0.966,2.325
		v4.495c0,0.334,0.018,0.655,0.052,0.966c0.034,0.311,0.097,0.615,0.19,0.914h-1.746V-45.544z M-41.013-46.794
		c0.615,0,1.171-0.158,1.665-0.473c0.495-0.315,0.817-0.676,0.966-1.084v-1.514h-1.907c-0.685,0-1.232,0.172-1.643,0.517
		c-0.411,0.345-0.617,0.748-0.617,1.213c0,0.414,0.13,0.739,0.389,0.982C-41.902-46.915-41.519-46.794-41.013-46.794z"/>
	<path fill="#013E7B" d="M-32.377-45.544h-1.699v-13.46h1.699V-45.544z"/>
	<path fill="#013E7B" d="M-25.889-45.361c-1.3,0-2.334-0.433-3.101-1.299s-1.151-1.989-1.151-3.369v-0.38
		c0-1.328,0.396-2.434,1.187-3.317c0.791-0.883,1.727-1.324,2.808-1.324c1.259,0,2.212,0.38,2.855,1.138
		c0.643,0.758,0.966,1.771,0.966,3.038v1.062h-6.056l-0.027,0.043c0.018,0.894,0.244,1.63,0.682,2.207
		c0.437,0.577,1.05,0.864,1.838,0.864c0.576,0,1.079-0.082,1.514-0.246c0.434-0.163,0.81-0.39,1.126-0.677l0.664,1.106
		c-0.334,0.33-0.773,0.605-1.319,0.825S-25.112-45.361-25.889-45.361z M-26.147-53.713c-0.57,0-1.056,0.24-1.458,0.719
		c-0.402,0.479-0.649,1.079-0.742,1.801l0.018,0.043h4.305v-0.224c0-0.666-0.178-1.221-0.534-1.668S-25.446-53.713-26.147-53.713z"
		/>
	<path fill="#013E7B" d="M-18.9-54.878l0.121,1.389c0.311-0.495,0.701-0.879,1.169-1.151c0.468-0.272,1.003-0.409,1.601-0.409
		c1.007,0,1.786,0.294,2.338,0.885c0.552,0.59,0.829,1.5,0.829,2.73v5.893h-1.699v-5.859c0-0.823-0.162-1.406-0.487-1.751
		c-0.325-0.345-0.822-0.518-1.489-0.518c-0.489,0-0.922,0.118-1.299,0.353c-0.377,0.236-0.677,0.558-0.901,0.966v6.807h-1.699
		v-9.335h1.517V-54.878z"/>
	<path fill="#013E7B" d="M-10.764-50.038c0-1.502,0.321-2.712,0.962-3.633c0.641-0.92,1.54-1.381,2.696-1.381
		c0.546,0,1.031,0.1,1.453,0.302c0.423,0.202,0.783,0.495,1.082,0.881v-5.133h1.699v13.46H-4.26l-0.199-1.147
		c-0.305,0.437-0.679,0.767-1.122,0.992s-0.957,0.337-1.545,0.337c-1.138,0-2.031-0.412-2.674-1.238
		c-0.643-0.826-0.966-1.911-0.966-3.257v-0.183H-10.764z M-9.065-49.857c0,0.944,0.193,1.698,0.579,2.265
		c0.386,0.567,0.984,0.85,1.795,0.85c0.507,0,0.932-0.115,1.277-0.345s0.627-0.552,0.845-0.966v-4.357
		c-0.218-0.386-0.502-0.692-0.85-0.919c-0.347-0.227-0.767-0.34-1.256-0.34c-0.817,0-1.419,0.337-1.808,1.01
		c-0.389,0.673-0.583,1.548-0.583,2.622v0.18H-9.065z"/>
	<path fill="#013E7B" d="M5.403-45.544c-0.057-0.281-0.102-0.53-0.134-0.747c-0.032-0.216-0.05-0.433-0.056-0.651
		c-0.317,0.449-0.729,0.825-1.238,1.126s-1.057,0.454-1.643,0.454c-0.972,0-1.712-0.249-2.222-0.747s-0.764-1.184-0.764-2.057
		c0-0.891,0.361-1.589,1.082-2.092s1.701-0.755,2.938-0.755h1.846v-0.923c0-0.546-0.166-0.979-0.501-1.299
		c-0.334-0.32-0.805-0.479-1.415-0.479c-0.546,0-0.991,0.14-1.333,0.418c-0.342,0.278-0.514,0.614-0.514,1.006h-1.623l-0.018-0.052
		c-0.034-0.679,0.286-1.3,0.962-1.864c0.676-0.564,1.549-0.845,2.618-0.845c1.059,0,1.91,0.269,2.553,0.807s0.966,1.313,0.966,2.325
		v4.495c0,0.334,0.018,0.655,0.052,0.966c0.034,0.311,0.097,0.615,0.19,0.914H5.403V-45.544z M2.582-46.794
		c0.615,0,1.171-0.158,1.665-0.473c0.495-0.315,0.817-0.676,0.966-1.084v-1.514H3.307c-0.685,0-1.232,0.172-1.643,0.517
		c-0.411,0.345-0.617,0.748-0.617,1.213c0,0.414,0.13,0.739,0.389,0.982C1.694-46.915,2.077-46.794,2.582-46.794z"/>
	<path fill="#013E7B" d="M13.799-53.378l-0.872-0.052c-0.449,0-0.828,0.106-1.135,0.32c-0.308,0.214-0.545,0.512-0.711,0.897v6.669
		H9.382v-9.335H10.9l0.163,1.363c0.265-0.483,0.59-0.86,0.979-1.131c0.389-0.271,0.835-0.405,1.341-0.405
		c0.127,0,0.247,0.01,0.362,0.031s0.211,0.041,0.284,0.065L13.799-53.378z"/>
</g>
<path fill="#013E7B" d="M32.679-48.044l-7.882,1.37l-2.956,0.514l0.464,2.668l0.03,0.012c0.007,0.092,0.003,0.183,0.02,0.276
	l1.199,6.897l0.171,0.985l0.514,2.956l2.956-0.514l7.882-1.37l2.956-0.514l-0.514-2.956l-1.37-7.882
	C35.866-47.227,34.305-48.326,32.679-48.044z"/>
<path fill="#5DA9DD" d="M39.104-46.115l1.37,7.882l0.514,2.956l2.668-0.464l0.012-0.03c0.092-0.007,0.183-0.003,0.276-0.02
	l6.897-1.199l0.985-0.171l2.956-0.514l-0.514-2.956l-1.371-7.882l-0.514-2.956l-2.956,0.514l-7.882,1.37
	C39.92-49.302,38.822-47.741,39.104-46.115z"/>
<path fill="#6D6E71" d="M41.032-52.54l7.882-1.37l2.956-0.514l-0.464-2.668l-0.03-0.012c-0.007-0.092-0.003-0.183-0.02-0.276
	l-1.199-6.897l-0.171-0.985l-0.514-2.956l-2.956,0.514l-7.882,1.37l-2.956,0.514l0.514,2.956l1.37,7.882
	C37.846-53.357,39.407-52.258,41.032-52.54z"/>
<path fill="#414042" d="M29.768-64.793l0.287-0.05l-0.012,0.03C29.952-64.805,29.861-64.809,29.768-64.793l1.884,10.838
	l-10.838,1.884l-2.442,3.469l2.956-0.514l2.956-0.514L32.166-51c1.626-0.283,2.725-1.844,2.442-3.469l-1.37-7.882l-0.514-2.956
	l-0.514-2.956L29.768-64.793z"/>
<g>
	<path fill="#212529" d="M106.346,29.055c0.083,0.473-0.234,0.924-0.707,1.006l-6.281,1.098c-0.473,0.083-0.924-0.234-1.006-0.707
		l-1.098-6.281c-0.083-0.473,0.234-0.924,0.707-1.006l0.856-0.15l-0.162-0.927c-0.02-0.118,0.059-0.231,0.176-0.252l0.714-0.125
		c0.118-0.02,0.231,0.059,0.252,0.177l0.162,0.927l2.284-0.399l-0.162-0.927c-0.02-0.118,0.059-0.231,0.176-0.252l0.714-0.125
		c0.117-0.02,0.231,0.059,0.252,0.177l0.162,0.927l0.856-0.15c0.473-0.083,0.924,0.234,1.006,0.707L106.346,29.055z M104.541,23.78
		l-6.281,1.098l0.929,5.318c0.01,0.058,0.067,0.099,0.126,0.088l6.067-1.06c0.058-0.01,0.099-0.067,0.088-0.126L104.541,23.78z
		 M99.73,26.974c-0.117,0.02-0.231-0.058-0.252-0.177l-0.125-0.714c-0.02-0.117,0.059-0.231,0.176-0.252l0.714-0.125
		c0.117-0.02,0.231,0.059,0.252,0.177l0.125,0.714c0.021,0.118-0.059,0.231-0.176,0.252L99.73,26.974z M100.743,28.562l-0.714,0.125
		c-0.118,0.02-0.231-0.058-0.252-0.177l-0.125-0.714c-0.02-0.117,0.059-0.231,0.176-0.252l0.714-0.125
		c0.117-0.02,0.231,0.059,0.252,0.177l0.125,0.714C100.94,28.429,100.86,28.542,100.743,28.562z M102.157,26.55l-0.714,0.125
		c-0.118,0.02-0.231-0.058-0.252-0.177l-0.125-0.714c-0.02-0.117,0.059-0.231,0.176-0.252l0.714-0.125
		c0.117-0.02,0.231,0.059,0.252,0.177l0.125,0.714C102.354,26.417,102.274,26.53,102.157,26.55z M102.456,28.263l-0.714,0.125
		c-0.118,0.02-0.231-0.058-0.252-0.177l-0.125-0.714c-0.02-0.117,0.059-0.231,0.177-0.252l0.714-0.125
		c0.118-0.02,0.231,0.059,0.252,0.177l0.125,0.714C102.654,28.13,102.574,28.243,102.456,28.263z M103.87,26.251l-0.714,0.125
		c-0.118,0.02-0.231-0.058-0.252-0.177l-0.125-0.714c-0.02-0.117,0.059-0.231,0.177-0.252l0.714-0.125
		c0.118-0.02,0.231,0.059,0.252,0.177l0.125,0.714C104.067,26.118,103.987,26.23,103.87,26.251z M104.169,27.964l-0.714,0.125
		c-0.118,0.02-0.231-0.058-0.252-0.177l-0.125-0.714c-0.02-0.117,0.059-0.231,0.176-0.252l0.714-0.125
		c0.118-0.02,0.231,0.059,0.252,0.177l0.125,0.714C104.367,27.83,104.287,27.943,104.169,27.964z"/>
</g>
</svg>
