<?xml version="1.0" encoding="utf-8"?>
<!-- Generator: Adobe Illustrator 17.0.0, SVG Export Plug-In . SVG Version: 6.00 Build 0)  -->
<!DOCTYPE svg PUBLIC "-//W3C//DTD SVG 1.1//EN" "http://www.w3.org/Graphics/SVG/1.1/DTD/svg11.dtd">
<svg version="1.1" id="Layer_1" xmlns="http://www.w3.org/2000/svg" xmlns:xlink="http://www.w3.org/1999/xlink" x="0px" y="0px"
	 width="200px" height="68.764px" viewBox="0 0 200 68.764" enable-background="new 0 0 200 68.764" xml:space="preserve">
<g>
	<g>
		<path fill="#013E7B" d="M7.33,26.368l4.802,12.242h0.062l4.802-12.242h2.608v15.067h-2.039v-5.961l0.207-6.126l-0.052-0.01
			l-4.884,12.097H11.48L6.616,29.369l-0.052,0.01l0.197,6.095v5.961H4.722V26.368H7.33z"/>
		<path fill="#013E7B" d="M26.381,37.286l0.362,1.407h0.062l2.753-8.455h2.266l-4.709,12.915c-0.283,0.752-0.688,1.407-1.216,1.966
			c-0.528,0.559-1.24,0.838-2.137,0.838c-0.166,0-0.376-0.019-0.631-0.057c-0.255-0.038-0.452-0.074-0.59-0.109l0.207-1.604
			c-0.041-0.007,0.081,0,0.367,0.021c0.286,0.021,0.467,0.031,0.543,0.031c0.435,0,0.79-0.193,1.066-0.58
			c0.276-0.386,0.507-0.814,0.693-1.283l0.486-1.169l-4.16-10.969h2.277L26.381,37.286z"/>
		<path fill="#013E7B" d="M50.119,41.223c-3.151,0.283-5.765,0.424-7.842,0.424c-1.384,0-2.402-0.325-3.051-0.975
			c-0.65-0.649-0.975-1.667-0.975-3.052v-6.782c0-1.483,0.335-2.56,1.006-3.232c0.671-0.671,1.749-1.006,3.232-1.006h7.63v2.967
			h-6.782c-0.848,0-1.271,0.424-1.271,1.272v6.782c0,0.325,0.095,0.583,0.285,0.774c0.191,0.191,0.435,0.286,0.731,0.286
			s0.622-0.003,0.975-0.01c0.353-0.007,0.72-0.018,1.102-0.032c0.381-0.014,0.766-0.028,1.155-0.042s0.89-0.042,1.505-0.085
			s1.381-0.092,2.3-0.149V41.223z"/>
		<path fill="#013E7B" d="M58.904,41.436c-0.069-0.338-0.122-0.636-0.16-0.895s-0.06-0.519-0.067-0.781
			c-0.379,0.538-0.874,0.988-1.485,1.35s-1.268,0.543-1.971,0.543c-1.166,0-2.054-0.298-2.665-0.895s-0.916-1.419-0.916-2.468
			c0-1.069,0.433-1.906,1.299-2.509c0.866-0.604,2.04-0.905,3.524-0.905h2.215v-1.107c0-0.655-0.2-1.175-0.6-1.557
			c-0.4-0.383-0.966-0.574-1.697-0.574c-0.655,0-1.188,0.167-1.599,0.502c-0.41,0.335-0.616,0.736-0.616,1.206h-1.945L52.2,33.284
			c-0.041-0.814,0.343-1.559,1.154-2.235s1.858-1.014,3.141-1.014c1.269,0,2.29,0.323,3.063,0.968s1.159,1.575,1.159,2.789v5.391
			c0,0.4,0.021,0.786,0.062,1.159s0.117,0.738,0.228,1.097h-2.103V41.436z M55.52,39.935c0.738,0,1.404-0.189,1.997-0.567
			s0.98-0.811,1.159-1.3v-1.816h-2.287c-0.821,0-1.478,0.206-1.971,0.619s-0.74,0.898-0.74,1.455c0,0.496,0.155,0.887,0.466,1.177
			C54.454,39.791,54.912,39.935,55.52,39.935z"/>
		<path fill="#013E7B" d="M65.878,41.436H63.84V25.292h2.039L65.878,41.436L65.878,41.436z"/>
		<path fill="#013E7B" d="M73.66,41.653c-1.559,0-2.799-0.519-3.72-1.557s-1.382-2.385-1.382-4.041V35.6
			c0-1.594,0.474-2.92,1.423-3.979s2.071-1.588,3.368-1.588c1.511,0,2.653,0.455,3.425,1.366c0.773,0.911,1.159,2.125,1.159,3.643
			v1.273H70.67l-0.031,0.052c0.021,1.073,0.293,1.956,0.818,2.647c0.524,0.692,1.259,1.037,2.204,1.037
			c0.69,0,1.295-0.098,1.816-0.295s0.971-0.467,1.35-0.812l0.797,1.326c-0.4,0.396-0.928,0.725-1.583,0.989
			C75.385,41.521,74.592,41.653,73.66,41.653z M73.35,31.636c-0.683,0-1.266,0.287-1.749,0.862c-0.483,0.573-0.78,1.294-0.89,2.16
			l0.021,0.052h5.164v-0.268c0-0.798-0.214-1.464-0.642-2.001C74.826,31.904,74.191,31.636,73.35,31.636z"/>
		<path fill="#013E7B" d="M82.042,30.239l0.145,1.666c0.373-0.593,0.84-1.054,1.402-1.382c0.562-0.328,1.202-0.492,1.92-0.492
			c1.207,0,2.142,0.354,2.804,1.061s0.993,1.799,0.993,3.275v7.068h-2.039v-7.027c0-0.987-0.195-1.687-0.585-2.101
			c-0.39-0.414-0.985-0.621-1.785-0.621c-0.586,0-1.106,0.141-1.557,0.424c-0.452,0.283-0.812,0.669-1.081,1.159v8.165H80.22V30.239
			H82.042z"/>
		<path fill="#013E7B" d="M91.801,36.044c0-1.801,0.385-3.253,1.154-4.357c0.769-1.104,1.847-1.656,3.234-1.656
			c0.655,0,1.237,0.121,1.744,0.362s0.94,0.593,1.299,1.056v-6.157h2.039v16.143h-1.666l-0.238-1.376
			c-0.366,0.524-0.814,0.921-1.345,1.19c-0.531,0.269-1.149,0.404-1.852,0.404c-1.366,0-2.435-0.495-3.208-1.485
			s-1.159-2.292-1.159-3.907v-0.217C91.803,36.044,91.801,36.044,91.801,36.044z M93.84,36.261c0,1.131,0.231,2.037,0.693,2.716
			s1.18,1.019,2.152,1.019c0.607,0,1.118-0.138,1.532-0.414s0.752-0.662,1.014-1.159v-5.226c-0.262-0.462-0.602-0.83-1.019-1.102
			c-0.417-0.273-0.919-0.409-1.506-0.409c-0.98,0-1.702,0.404-2.168,1.211c-0.466,0.807-0.699,1.856-0.699,3.146L93.84,36.261
			L93.84,36.261z"/>
		<path fill="#013E7B" d="M111.194,41.436c-0.069-0.338-0.122-0.636-0.16-0.895s-0.06-0.519-0.067-0.781
			c-0.379,0.538-0.874,0.988-1.485,1.35s-1.268,0.543-1.971,0.543c-1.166,0-2.054-0.298-2.665-0.895s-0.916-1.419-0.916-2.468
			c0-1.069,0.433-1.906,1.299-2.509c0.866-0.604,2.04-0.905,3.524-0.905h2.215v-1.107c0-0.655-0.2-1.175-0.6-1.557
			c-0.4-0.383-0.966-0.574-1.697-0.574c-0.655,0-1.188,0.167-1.599,0.502c-0.41,0.335-0.616,0.736-0.616,1.206h-1.945l-0.021-0.062
			c-0.041-0.814,0.343-1.559,1.154-2.235s1.858-1.014,3.141-1.014c1.269,0,2.29,0.323,3.063,0.968s1.159,1.575,1.159,2.789v5.391
			c0,0.4,0.021,0.786,0.062,1.159c0.041,0.373,0.117,0.738,0.228,1.097h-2.103C111.194,41.439,111.194,41.436,111.194,41.436z
			 M107.81,39.935c0.738,0,1.404-0.189,1.997-0.567s0.98-0.811,1.159-1.3v-1.816h-2.287c-0.821,0-1.478,0.206-1.971,0.619
			c-0.493,0.413-0.74,0.898-0.74,1.455c0,0.496,0.155,0.887,0.466,1.177C106.744,39.791,107.203,39.935,107.81,39.935z"/>
		<path fill="#013E7B" d="M121.263,32.039l-1.045-0.062c-0.538,0-0.992,0.128-1.361,0.383s-0.654,0.614-0.854,1.076v7.999h-2.039
			V30.239h1.821l0.197,1.635c0.317-0.58,0.709-1.031,1.175-1.356s1.002-0.486,1.609-0.486c0.152,0,0.297,0.012,0.435,0.036
			s0.252,0.05,0.341,0.078L121.263,32.039z"/>
	</g>
	<path fill="#013E7B" d="M156.661,38.216l-13.92,2.419l-5.22,0.907l0.819,4.713l0.054,0.02c0.013,0.163,0.006,0.323,0.035,0.487
		l2.117,12.18l0.302,1.74l0.907,5.22l5.22-0.907l13.92-2.419l5.22-0.907l-0.907-5.22l-2.419-13.92
		C162.289,39.658,159.532,37.717,156.661,38.216z"/>
	<path fill="#5DA9DD" d="M168.008,41.622l2.419,13.92l0.907,5.22l4.713-0.819l0.02-0.054c0.163-0.013,0.323-0.006,0.487-0.035
		l12.18-2.117l1.74-0.302l5.22-0.907l-0.907-5.22l-2.419-13.92l-0.907-5.22l-5.22,0.907l-13.92,2.419
		C169.45,35.993,167.509,38.751,168.008,41.622z"/>
	<path fill="#6D6E71" d="M171.414,30.274l13.92-2.419l5.22-0.907l-0.819-4.713l-0.054-0.02c-0.013-0.163-0.006-0.323-0.035-0.487
		l-2.117-12.18l-0.302-1.74l-0.907-5.22l-5.22,0.907l-13.92,2.419l-5.22,0.907l0.907,5.22l2.419,13.92
		C165.786,28.832,168.543,30.773,171.414,30.274z"/>
	<path fill="#414042" d="M151.52,8.635l0.508-0.088l-0.02,0.054C151.844,8.614,151.684,8.607,151.52,8.635l3.327,19.14l-19.14,3.327
		l-4.313,6.127l5.22-0.907l5.22-0.907l13.92-2.419c2.871-0.499,4.812-3.256,4.313-6.127l-2.419-13.92l-0.907-5.22l-0.907-5.22
		L151.52,8.635z"/>
</g>
<g>
	<path fill="#013E7B" d="M190.518,52.047c0.158,0.906-0.448,1.769-1.354,1.927l-12.029,2.102c-0.906,0.158-1.769-0.448-1.927-1.354
		l-2.102-12.029c-0.158-0.906,0.448-1.769,1.354-1.927l1.64-0.287l-0.31-1.776c-0.039-0.226,0.113-0.442,0.338-0.482l1.367-0.239
		c0.225-0.039,0.442,0.113,0.482,0.338l0.31,1.776l4.374-0.764l-0.31-1.776c-0.039-0.226,0.113-0.442,0.338-0.482l1.367-0.239
		c0.225-0.039,0.442,0.113,0.482,0.338l0.31,1.776l1.64-0.287c0.906-0.158,1.769,0.448,1.927,1.354L190.518,52.047z M187.062,41.945
		l-12.029,2.102l1.779,10.184c0.02,0.112,0.128,0.189,0.241,0.169l11.619-2.03c0.112-0.02,0.189-0.128,0.169-0.241L187.062,41.945z
		 M177.848,48.062c-0.225,0.039-0.442-0.112-0.482-0.338l-0.239-1.367c-0.039-0.225,0.113-0.442,0.338-0.482l1.367-0.239
		c0.225-0.039,0.442,0.113,0.482,0.338l0.239,1.367c0.04,0.226-0.113,0.442-0.338,0.482L177.848,48.062z M179.788,51.104
		l-1.367,0.239c-0.225,0.039-0.442-0.112-0.482-0.338l-0.239-1.367c-0.039-0.225,0.113-0.442,0.338-0.482l1.367-0.239
		c0.225-0.039,0.442,0.113,0.482,0.338l0.239,1.367C180.166,50.849,180.013,51.065,179.788,51.104z M182.495,47.25l-1.367,0.239
		c-0.225,0.039-0.442-0.112-0.482-0.338l-0.239-1.367c-0.039-0.225,0.113-0.442,0.338-0.482l1.367-0.239
		c0.225-0.039,0.442,0.113,0.482,0.338l0.239,1.367C182.873,46.995,182.72,47.211,182.495,47.25z M183.069,50.531l-1.367,0.239
		c-0.225,0.039-0.442-0.112-0.482-0.338l-0.239-1.367c-0.039-0.225,0.113-0.442,0.338-0.482l1.367-0.239
		c0.225-0.039,0.442,0.113,0.482,0.338l0.239,1.367C183.447,50.276,183.294,50.492,183.069,50.531z M185.776,46.677l-1.367,0.239
		c-0.225,0.039-0.442-0.112-0.482-0.338l-0.239-1.367c-0.039-0.225,0.113-0.442,0.338-0.482l1.367-0.239
		c0.225-0.039,0.442,0.113,0.482,0.338l0.239,1.367C186.154,46.422,186.001,46.638,185.776,46.677z M186.349,49.958l-1.367,0.239
		c-0.225,0.039-0.442-0.112-0.482-0.338l-0.239-1.367c-0.039-0.225,0.113-0.442,0.338-0.482l1.367-0.239
		c0.225-0.039,0.442,0.113,0.482,0.338l0.239,1.367C186.727,49.702,186.574,49.918,186.349,49.958z"/>
</g>
<g>
	<g>
		<path fill="#E6E6E6" d="M-141.999-72.906l4.802,12.242h0.062l4.802-12.242h2.608v15.067h-2.039V-63.8l0.207-6.126l-0.052-0.01
			l-4.884,12.097h-1.356l-4.864-12.066l-0.052,0.01l0.197,6.095v5.961h-2.039v-15.067H-141.999z"/>
		<path fill="#E6E6E6" d="M-122.948-61.988l0.362,1.407h0.062l2.753-8.455h2.266l-4.709,12.915
			c-0.283,0.752-0.688,1.407-1.216,1.966c-0.528,0.559-1.24,0.838-2.137,0.838c-0.166,0-0.376-0.019-0.631-0.057
			c-0.255-0.038-0.452-0.074-0.59-0.109l0.207-1.604c-0.041-0.007,0.081,0,0.367,0.021c0.286,0.021,0.467,0.031,0.543,0.031
			c0.435,0,0.79-0.193,1.066-0.58c0.276-0.386,0.507-0.814,0.693-1.283l0.486-1.169l-4.16-10.969h2.277L-122.948-61.988z"/>
		<path fill="#E6E6E6" d="M-99.21-58.051c-3.151,0.283-5.765,0.424-7.842,0.424c-1.384,0-2.402-0.325-3.051-0.975
			c-0.65-0.649-0.975-1.667-0.975-3.052v-6.782c0-1.483,0.335-2.56,1.006-3.232c0.671-0.671,1.749-1.006,3.232-1.006h7.63v2.967
			h-6.782c-0.848,0-1.271,0.424-1.271,1.272v6.782c0,0.325,0.095,0.583,0.285,0.774c0.191,0.191,0.435,0.286,0.731,0.286
			s0.622-0.003,0.975-0.01s0.72-0.018,1.102-0.032c0.381-0.014,0.766-0.028,1.155-0.042c0.389-0.014,0.89-0.042,1.505-0.085
			s1.381-0.092,2.3-0.149V-58.051z"/>
		<path fill="#E6E6E6" d="M-90.425-57.838c-0.069-0.338-0.122-0.636-0.16-0.895c-0.038-0.259-0.06-0.519-0.067-0.781
			c-0.379,0.538-0.874,0.988-1.485,1.35c-0.611,0.362-1.268,0.543-1.971,0.543c-1.166,0-2.054-0.298-2.665-0.895
			c-0.611-0.597-0.916-1.419-0.916-2.468c0-1.069,0.433-1.906,1.299-2.509c0.866-0.604,2.04-0.905,3.524-0.905h2.215v-1.107
			c0-0.655-0.2-1.175-0.6-1.557c-0.4-0.383-0.966-0.574-1.697-0.574c-0.655,0-1.188,0.167-1.599,0.502
			c-0.41,0.335-0.616,0.736-0.616,1.206h-1.945l-0.021-0.062c-0.041-0.814,0.343-1.559,1.154-2.235
			c0.811-0.676,1.858-1.014,3.141-1.014c1.269,0,2.29,0.323,3.063,0.968c0.773,0.645,1.159,1.575,1.159,2.789v5.391
			c0,0.4,0.021,0.786,0.062,1.159s0.117,0.738,0.228,1.097h-2.103V-57.838z M-93.809-59.339c0.738,0,1.404-0.189,1.997-0.567
			s0.98-0.811,1.159-1.3v-1.816h-2.287c-0.821,0-1.478,0.206-1.971,0.619c-0.493,0.413-0.74,0.898-0.74,1.455
			c0,0.496,0.155,0.887,0.466,1.177C-94.875-59.483-94.417-59.339-93.809-59.339z"/>
		<path fill="#E6E6E6" d="M-83.451-57.838h-2.038v-16.144h2.039L-83.451-57.838L-83.451-57.838z"/>
		<path fill="#E6E6E6" d="M-75.669-57.621c-1.559,0-2.799-0.519-3.72-1.557s-1.382-2.385-1.382-4.041v-0.455
			c0-1.594,0.474-2.92,1.423-3.979c0.949-1.059,2.071-1.588,3.368-1.588c1.511,0,2.653,0.455,3.425,1.366
			c0.773,0.911,1.159,2.125,1.159,3.643v1.273h-7.263l-0.031,0.052c0.021,1.073,0.293,1.956,0.818,2.647
			c0.524,0.692,1.259,1.037,2.204,1.037c0.69,0,1.295-0.098,1.816-0.295s0.971-0.467,1.35-0.812l0.797,1.326
			c-0.4,0.396-0.928,0.725-1.583,0.989C-73.944-57.753-74.737-57.621-75.669-57.621z M-75.979-67.638
			c-0.683,0-1.266,0.287-1.749,0.862c-0.483,0.573-0.78,1.294-0.89,2.16l0.021,0.052h5.164v-0.268c0-0.798-0.214-1.464-0.642-2.001
			C-74.503-67.37-75.138-67.638-75.979-67.638z"/>
		<path fill="#E6E6E6" d="M-67.287-69.035l0.145,1.666c0.373-0.593,0.84-1.054,1.402-1.382c0.562-0.328,1.202-0.492,1.92-0.492
			c1.207,0,2.142,0.354,2.804,1.061s0.993,1.799,0.993,3.275v7.068h-2.039v-7.027c0-0.987-0.195-1.687-0.585-2.101
			s-0.985-0.621-1.785-0.621c-0.586,0-1.106,0.141-1.557,0.424c-0.452,0.283-0.812,0.669-1.081,1.159v8.165h-2.039v-11.195H-67.287z
			"/>
		<path fill="#E6E6E6" d="M-57.528-63.23c0-1.801,0.385-3.253,1.154-4.357s1.847-1.656,3.234-1.656c0.655,0,1.237,0.121,1.744,0.362
			c0.507,0.241,0.94,0.593,1.299,1.056v-6.157h2.039v16.143h-1.666l-0.238-1.376c-0.366,0.524-0.814,0.921-1.345,1.19
			c-0.531,0.269-1.149,0.404-1.852,0.404c-1.366,0-2.435-0.495-3.208-1.485s-1.159-2.292-1.159-3.907v-0.217
			C-57.526-63.23-57.528-63.23-57.528-63.23z M-55.489-63.013c0,1.131,0.231,2.037,0.693,2.716s1.18,1.019,2.152,1.019
			c0.607,0,1.118-0.138,1.532-0.414s0.752-0.662,1.014-1.159v-5.226c-0.262-0.462-0.602-0.83-1.019-1.102
			c-0.417-0.273-0.919-0.409-1.506-0.409c-0.98,0-1.702,0.404-2.168,1.211c-0.466,0.807-0.699,1.856-0.699,3.146L-55.489-63.013
			L-55.489-63.013z"/>
		<path fill="#E6E6E6" d="M-38.135-57.838c-0.069-0.338-0.122-0.636-0.16-0.895s-0.06-0.519-0.067-0.781
			c-0.379,0.538-0.874,0.988-1.485,1.35s-1.268,0.543-1.971,0.543c-1.166,0-2.054-0.298-2.665-0.895s-0.916-1.419-0.916-2.468
			c0-1.069,0.433-1.906,1.299-2.509c0.866-0.604,2.04-0.905,3.524-0.905h2.215v-1.107c0-0.655-0.2-1.175-0.6-1.557
			c-0.4-0.383-0.966-0.574-1.697-0.574c-0.655,0-1.188,0.167-1.599,0.502c-0.41,0.335-0.616,0.736-0.616,1.206h-1.945l-0.021-0.062
			c-0.041-0.814,0.343-1.559,1.154-2.235s1.858-1.014,3.141-1.014c1.269,0,2.29,0.323,3.063,0.968
			c0.773,0.645,1.159,1.575,1.159,2.789v5.391c0,0.4,0.021,0.786,0.062,1.159c0.041,0.373,0.117,0.738,0.228,1.097h-2.103
			C-38.135-57.835-38.135-57.838-38.135-57.838z M-41.519-59.339c0.738,0,1.404-0.189,1.997-0.567s0.98-0.811,1.159-1.3v-1.816
			h-2.287c-0.821,0-1.478,0.206-1.971,0.619c-0.493,0.413-0.74,0.898-0.74,1.455c0,0.496,0.155,0.887,0.466,1.177
			C-42.585-59.483-42.126-59.339-41.519-59.339z"/>
		<path fill="#E6E6E6" d="M-28.066-67.235l-1.045-0.062c-0.538,0-0.992,0.128-1.361,0.383c-0.369,0.255-0.654,0.614-0.854,1.076
			v7.999h-2.039v-11.196h1.821l0.197,1.635c0.317-0.58,0.709-1.031,1.175-1.356s1.002-0.486,1.609-0.486
			c0.152,0,0.297,0.012,0.435,0.036c0.138,0.024,0.252,0.05,0.341,0.078L-28.066-67.235z"/>
	</g>
</g>
<g>
	<path fill="#CCCCCC" d="M1.658-64.303l-8.96,1.557l-3.36,0.584l0.527,3.034l0.035,0.013c0.008,0.105,0.004,0.208,0.023,0.313
		l1.363,7.84l0.194,1.12l0.584,3.36l3.36-0.584l8.96-1.557l3.36-0.584l-0.584-3.36l-1.557-8.96
		C5.281-63.375,3.506-64.624,1.658-64.303z"/>
	<path fill="#E6E6E6" d="M8.962-62.111l1.557,8.96l0.584,3.36l3.034-0.527l0.013-0.035c0.105-0.008,0.208-0.004,0.313-0.023
		l7.84-1.363l1.12-0.194l3.36-0.584l-0.584-3.36l-1.557-8.96l-0.584-3.36l-3.36,0.584l-8.96,1.557
		C9.89-65.734,8.641-63.959,8.962-62.111z"/>
	<path fill="#828282" d="M11.154-69.415l8.96-1.557l3.36-0.584l-0.527-3.034l-0.035-0.013c-0.008-0.105-0.004-0.208-0.023-0.313
		l-1.363-7.84l-0.194-1.12l-0.584-3.36l-3.36,0.584l-8.96,1.557l-3.36,0.584l0.584,3.36l1.557,8.96
		C7.532-70.344,9.306-69.094,11.154-69.415z"/>
	<path fill="#A6A6A6" d="M-1.651-83.344l0.327-0.057l-0.013,0.035C-1.443-83.358-1.546-83.362-1.651-83.344l2.142,12.32
		l-12.32,2.142l-2.776,3.944l3.36-0.584l3.36-0.584l8.96-1.557c1.848-0.321,3.097-2.096,2.776-3.944l-1.557-8.96l-0.584-3.36
		l-0.584-3.36L-1.651-83.344z"/>
	<g>
		<path fill="#6D6E71" d="M23.452-55.4c0.102,0.583-0.288,1.139-0.872,1.24l-7.743,1.353c-0.583,0.102-1.139-0.288-1.24-0.872
			l-1.353-7.743c-0.102-0.583,0.288-1.139,0.872-1.24l1.056-0.185l-0.2-1.143c-0.025-0.145,0.073-0.285,0.218-0.31l0.88-0.154
			c0.145-0.025,0.285,0.073,0.31,0.218l0.2,1.143l2.816-0.492l-0.2-1.143c-0.025-0.145,0.073-0.285,0.218-0.31l0.88-0.154
			c0.145-0.025,0.285,0.073,0.31,0.218l0.2,1.143l1.056-0.185c0.583-0.102,1.139,0.288,1.24,0.872L23.452-55.4z M21.227-61.903
			l-7.743,1.353l1.145,6.555c0.013,0.072,0.082,0.122,0.155,0.109l7.479-1.307c0.072-0.013,0.122-0.082,0.109-0.155L21.227-61.903z
			 M15.296-57.965c-0.145,0.025-0.285-0.072-0.31-0.218l-0.154-0.88c-0.025-0.145,0.073-0.285,0.218-0.31l0.88-0.154
			c0.145-0.025,0.285,0.073,0.31,0.218l0.154,0.88c0.026,0.145-0.073,0.285-0.218,0.31L15.296-57.965z M16.545-56.007l-0.88,0.154
			c-0.145,0.025-0.285-0.072-0.31-0.218l-0.154-0.88c-0.025-0.145,0.073-0.285,0.218-0.31l0.88-0.154
			c0.145-0.025,0.285,0.073,0.31,0.218l0.154,0.88C16.788-56.171,16.69-56.032,16.545-56.007z M18.287-58.488l-0.88,0.154
			c-0.145,0.025-0.285-0.072-0.31-0.218l-0.154-0.88c-0.025-0.145,0.073-0.285,0.218-0.31l0.88-0.154
			c0.145-0.025,0.285,0.073,0.31,0.218l0.154,0.88C18.531-58.652,18.432-58.513,18.287-58.488z M18.657-56.376l-0.88,0.154
			c-0.145,0.025-0.285-0.072-0.31-0.218l-0.154-0.88c-0.025-0.145,0.073-0.285,0.218-0.31l0.88-0.154
			c0.145-0.025,0.285,0.073,0.31,0.218l0.154,0.88C18.9-56.54,18.802-56.401,18.657-56.376z M20.399-58.857l-0.88,0.154
			c-0.145,0.025-0.285-0.072-0.31-0.218l-0.154-0.88c-0.025-0.145,0.073-0.285,0.218-0.31l0.88-0.154
			c0.145-0.025,0.285,0.073,0.31,0.218l0.154,0.88C20.643-59.021,20.544-58.882,20.399-58.857z M20.768-56.745l-0.88,0.154
			c-0.145,0.025-0.285-0.072-0.31-0.218l-0.154-0.88c-0.025-0.145,0.073-0.285,0.218-0.31l0.88-0.154
			c0.145-0.025,0.285,0.073,0.31,0.218l0.154,0.88C21.011-56.909,20.913-56.77,20.768-56.745z"/>
	</g>
</g>
</svg>
